<svg xmlns="http://www.w3.org/2000/svg" width="800" height="500" viewBox="0 0 800 500">
  <defs>
    <linearGradient id="glass3" x1="0" y1="0" x2="0" y2="1">
      <stop offset="0%" stop-color="#1a1a2e" stop-opacity="0.85"/>
      <stop offset="100%" stop-color="#0f0f23" stop-opacity="0.95"/>
    </linearGradient>
  </defs>
  <rect width="800" height="500" rx="12" fill="url(#glass3)" stroke="#333" stroke-width="1"/>
  <rect x="0" y="0" width="800" height="28" rx="12" fill="#1e1e3a"/>
  <rect x="0" y="14" width="800" height="14" fill="#1e1e3a"/>
  <circle cx="16" cy="14" r="5" fill="#ff5f57"/>
  <circle cx="34" cy="14" r="5" fill="#febc2e"/>
  <circle cx="52" cy="14" r="5" fill="#28c840"/>
  <text x="400" y="18" fill="#64748b" font-family="system-ui" font-size="11" text-anchor="middle">AI Chat  Settings</text>
  <rect x="0" y="28" width="56" height="472" fill="#12122a"/>
  <circle cx="28" cy="60" r="14" fill="transparent" stroke="#475569" stroke-width="1"/>
  <text x="28" y="65" fill="#475569" font-family="system-ui" font-size="14" text-anchor="middle">=¬</text>
  <circle cx="28" cy="100" r="14" fill="#e94560" fill-opacity="0.2" stroke="#e94560" stroke-width="1"/>
  <text x="28" y="105" fill="#e94560" font-family="system-ui" font-size="14" text-anchor="middle">™</text>
  <text x="110" y="72" fill="#cbd5e1" font-family="system-ui" font-size="18" font-weight="bold">Appearance</text>
  <text x="110" y="116" fill="#94a3b8" font-family="system-ui" font-size="14">Theme</text>
  <rect x="110" y="130" width="100" height="32" rx="4" fill="#0f3460" stroke="#475569" stroke-width="1"/>
  <text x="160" y="152" fill="#94a3b8" font-family="system-ui" font-size="12" text-anchor="middle">System</text>
  <rect x="216" y="130" width="100" height="32" rx="4" fill="#e94560"/>
  <text x="266" y="152" fill="#fff" font-family="system-ui" font-size="12" text-anchor="middle">Liquid</text>
  <rect x="322" y="130" width="100" height="32" rx="4" fill="#0f3460" stroke="#475569" stroke-width="1"/>
  <text x="372" y="152" fill="#94a3b8" font-family="system-ui" font-size="12" text-anchor="middle">Classic</text>
  <text x="110" y="200" fill="#94a3b8" font-family="system-ui" font-size="14">Window Transparency</text>
  <rect x="340" y="184" width="44" height="24" rx="12" fill="#e94560"/>
  <circle cx="372" cy="196" r="9" fill="#fff"/>
  <text x="110" y="260" fill="#94a3b8" font-family="system-ui" font-size="14">Glass Opacity</text>
  <rect x="110" y="274" width="320" height="6" rx="3" fill="#0f3460"/>
  <rect x="110" y="274" width="230" height="6" rx="3" fill="#e94560"/>
  <circle cx="340" cy="277" r="8" fill="#e94560"/>
  <text x="450" y="282" fill="#cbd5e1" font-family="system-ui" font-size="12">78%</text>
  <text x="110" y="340" fill="#475569" font-family="system-ui" font-size="11" font-style="italic">Powered by IWindowShellService</text>
  <text x="110" y="360" fill="#475569" font-family="system-ui" font-size="11" font-style="italic">WindowShellService ’ AvaloniaWindowChromeProvider</text>
  <text x="400" y="496" fill="#475569" font-family="system-ui" font-size="10" text-anchor="middle">[ Placeholder  replace with actual screenshot ]</text>
</svg>
