<svg xmlns="http://www.w3.org/2000/svg" width="800" height="500" viewBox="0 0 800 500">
  <defs>
    <linearGradient id="glass2" x1="0" y1="0" x2="0" y2="1">
      <stop offset="0%" stop-color="#1a1a2e" stop-opacity="0.85"/>
      <stop offset="100%" stop-color="#0f0f23" stop-opacity="0.95"/>
    </linearGradient>
  </defs>
  <rect width="800" height="500" rx="12" fill="url(#glass2)" stroke="#333" stroke-width="1"/>
  <rect x="0" y="0" width="800" height="28" rx="12" fill="#1e1e3a"/>
  <rect x="0" y="14" width="800" height="14" fill="#1e1e3a"/>
  <circle cx="16" cy="14" r="5" fill="#ff5f57"/>
  <circle cx="34" cy="14" r="5" fill="#febc2e"/>
  <circle cx="52" cy="14" r="5" fill="#28c840"/>
  <text x="400" y="18" fill="#64748b" font-family="system-ui" font-size="11" text-anchor="middle">AI Chat  Streaming</text>
  <rect x="0" y="28" width="56" height="472" fill="#12122a"/>
  <circle cx="28" cy="60" r="14" fill="#e94560" fill-opacity="0.2" stroke="#e94560" stroke-width="1"/>
  <text x="28" y="65" fill="#e94560" font-family="system-ui" font-size="14" text-anchor="middle">=¬</text>
  <rect x="340" y="60" width="420" height="48" rx="20" fill="#3b82f6"/>
  <text x="360" y="90" fill="#fff" font-family="system-ui" font-size="14">Explain how hybrid apps work</text>
  <rect x="80" y="130" width="520" height="120" rx="16" fill="#1e293b"/>
  <text x="100" y="158" fill="#cbd5e1" font-family="system-ui" font-size="13">Hybrid apps combine native desktop shells with web</text>
  <text x="100" y="180" fill="#cbd5e1" font-family="system-ui" font-size="13">frontends. The native host provides OS integration </text>
  <text x="100" y="202" fill="#cbd5e1" font-family="system-ui" font-size="13">file access, system APIs, window management  while</text>
  <text x="100" y="224" fill="#cbd5e1" font-family="system-ui" font-size="13">the web layer handles UI rendering with React, Vue...</text>
  <rect x="600" y="224" width="2" height="16" fill="#e94560">
    <animate attributeName="opacity" values="1;0;1" dur="1s" repeatCount="indefinite"/>
  </rect>
  <text x="100" y="280" fill="#475569" font-family="system-ui" font-size="11" font-style="italic">Streaming via IAsyncEnumerable&lt;string&gt; ’ AsyncIterable</text>
  <rect x="80" y="440" width="640" height="40" rx="20" fill="#16213e" stroke="#334155" stroke-width="1"/>
  <text x="110" y="466" fill="#475569" font-family="system-ui" font-size="14">Ask me anything...</text>
  <text x="400" y="496" fill="#475569" font-family="system-ui" font-size="10" text-anchor="middle">[ Placeholder  replace with actual screenshot ]</text>
</svg>
